<?xml version="1.0"?>
<svg xmlns="http://www.w3.org/2000/svg" height="512px" viewBox="0 0 512 512" width="512px" class=""><g><path d="m151.808594 248.457031h16.03125v15.089844h-16.03125zm0 0" data-original="#000000" class="active-path" data-old_color="#000000" fill="#3C5AFD"/><path d="m344.160156 248.457031h16.03125v15.089844h-16.03125zm0 0" data-original="#000000" class="active-path" data-old_color="#000000" fill="#3C5AFD"/><path d="m315.214844 387.074219-6.222656-13.75c-16.6875 7.550781-34.519532 11.378906-52.992188 11.378906-70.964844 0-128.703125-57.734375-128.703125-128.703125 0-12.90625 1.902344-25.644531 5.65625-37.855469l-14.425781-4.433593c-3.460938 11.261718-5.488282 22.917968-6.101563 34.746093h-33.949219c-3.53125-18.242187-19.617187-32.058593-38.871093-32.058593-21.839844 0-39.605469 17.765624-39.605469 39.601562 0 21.839844 17.765625 39.605469 39.605469 39.605469 19.253906 0 35.339843-13.820313 38.871093-32.058594h33.925782c1.765625 33.972656 15.378906 64.859375 36.777344 88.605469l-31.324219 31.324218c-6.328125-4.285156-13.953125-6.789062-22.148438-6.789062-21.835937 0-39.605469 17.769531-39.605469 39.605469 0 21.835937 17.769532 39.605469 39.605469 39.605469 21.835938 0 39.605469-17.769532 39.605469-39.605469 0-8.195313-2.503906-15.820313-6.789062-22.148438l31.324218-31.324219c23.746094 21.398438 54.632813 35.011719 88.609375 36.777344v33.921875c-18.242187 3.535157-32.058593 19.617188-32.058593 38.875 0 21.839844 17.765624 39.605469 39.601562 39.605469 21.839844 0 39.605469-17.765625 39.605469-39.605469 0-19.257812-13.820313-35.339843-32.058594-38.875v-33.921875c17.945313-.914062 35.292969-5.117187 51.667969-12.523437zm-275.609375-106.558594c-13.519531 0-24.515625-11-24.515625-24.515625s10.996094-24.511719 24.515625-24.511719c13.515625 0 24.511719 10.996094 24.511719 24.511719s-10.996094 24.515625-24.511719 24.515625zm56.101562 160.292969c-13.515625 0-24.511719-10.996094-24.511719-24.515625 0-13.515625 10.996094-24.511719 24.511719-24.511719s24.515625 10.996094 24.515625 24.511719c0 13.519531-11 24.515625-24.515625 24.515625zm184.808594 31.585937c0 13.519531-11 24.515625-24.515625 24.515625s-24.511719-10.996094-24.511719-24.515625c0-13.515625 10.996094-24.511719 24.511719-24.511719s24.515625 10.996094 24.515625 24.511719zm0 0" data-original="#000000" class="active-path" data-old_color="#000000" fill="#3C5AFD"/><path d="m281.808594 237.914062c8.4375-7.269531 13.796875-18.015624 13.796875-30.003906 0-21.835937-17.765625-39.601562-39.605469-39.601562-21.835938 0-39.601562 17.765625-39.601562 39.601562 0 11.988282 5.355468 22.734375 13.792968 30.003906-22.265625 9.921876-37.839844 32.25-37.839844 58.160157 0 13.699219 6.605469 39.605469 31.589844 39.605469h64.117188c24.988281 0 31.589844-25.90625 31.589844-39.605469 0-25.910157-15.570313-48.238281-37.839844-58.160157zm-25.808594 9.601563c4.238281 0 8.347656.550781 12.269531 1.574219l-12.269531 12.269531-12.269531-12.269531c3.921875-1.023438 8.03125-1.574219 12.269531-1.574219zm-24.511719-39.605469c0-13.515625 10.996094-24.511718 24.511719-24.511718s24.515625 10.996093 24.515625 24.511718c0 13.519532-11 24.515625-24.515625 24.515625s-24.511719-10.996093-24.511719-24.515625zm70.429688 101.839844c-3.753907 9.714844-9.707031 10.835938-13.859375 10.835938h-64.117188c-4.148437 0-10.101562-1.121094-13.859375-10.835938-2.570312-6.640625-2.640625-13.628906-2.640625-13.675781 0-16.800781 8.578125-31.632813 21.582032-40.351563l26.976562 26.976563 26.980469-26.976563c13 8.71875 21.578125 23.542969 21.578125 40.328125 0 .070313-.070313 7.0625-2.640625 13.699219zm0 0" data-original="#000000" class="active-path" data-old_color="#000000" fill="#3C5AFD"/><path d="m472.394531 216.398438c-19.253906 0-35.335937 13.816406-38.871093 32.058593h-33.925782c-1.765625-33.976562-15.378906-64.863281-36.773437-88.609375l31.324219-31.324218c6.324218 4.285156 13.949218 6.789062 22.144531 6.789062 21.839843 0 39.605469-17.769531 39.605469-39.605469 0-21.835937-17.765626-39.605469-39.605469-39.605469-21.835938 0-39.601563 17.769532-39.601563 39.605469 0 8.195313 2.503906 15.820313 6.785156 22.148438l-31.324218 31.324219c-23.746094-21.398438-54.632813-35.011719-88.605469-36.777344v-33.921875c18.238281-3.535157 32.058594-19.617188 32.058594-38.875 0-21.839844-17.765625-39.605469-39.605469-39.605469-21.835938 0-39.601562 17.765625-39.601562 39.605469 0 19.253906 13.816406 35.339843 32.058593 38.871093v33.953126c-33.308593 1.753906-64.484375 15.054687-88.621093 36.734374l-31.3125-31.308593c4.285156-6.328125 6.789062-13.953125 6.789062-22.148438 0-21.835937-17.769531-39.605469-39.605469-39.605469-21.835937 0-39.605469 17.769532-39.605469 39.605469 0 21.835938 17.769532 39.605469 39.605469 39.605469 8.195313 0 15.820313-2.503906 22.148438-6.789062l31.296875 31.300781c-9.785156 10.839843-18.019532 23.246093-24.226563 36.964843l13.75 6.21875c19.765625-43.6875 62.3125-72.671874 109.78125-75.46875v.226563h15.089844v-.242187c67.46875 3.921874 121.15625 60.042968 121.15625 128.476562 0 44.671875-22.640625 85.496094-60.566406 109.214844l8 12.792968c7.203125-4.503906 13.902343-9.574218 20.082031-15.117187l31.257812 31.257813c-4.28125 6.328124-6.785156 13.949218-6.785156 22.148437 0 21.835937 17.765625 39.601563 39.601563 39.601563 21.839843 0 39.605469-17.765626 39.605469-39.601563 0-21.839844-17.765626-39.605469-39.605469-39.605469-8.195313 0-15.820313 2.503906-22.144531 6.789063l-31.234376-31.234375c21.890626-24.21875 34.953126-55.304688 36.667969-88.699219h33.941407c3.53125 18.242187 19.617187 32.058594 38.871093 32.058594 21.839844 0 39.605469-17.765625 39.605469-39.601563 0-21.839844-17.765625-39.605468-39.605469-39.605468zm-240.90625-176.792969c0-13.519531 10.996094-24.515625 24.511719-24.515625s24.515625 10.996094 24.515625 24.515625c0 13.515625-11 24.511719-24.515625 24.511719s-24.511719-10.996094-24.511719-24.511719zm184.804688 31.589843c13.519531 0 24.515625 10.996094 24.515625 24.511719s-10.996094 24.515625-24.515625 24.515625c-13.515625 0-24.511719-11-24.511719-24.515625s10.996094-24.511719 24.511719-24.511719zm-320.585938 49.027344c-13.515625 0-24.511719-11-24.511719-24.515625s10.996094-24.511719 24.511719-24.511719 24.515625 10.996094 24.515625 24.511719-11 24.515625-24.515625 24.515625zm320.585938 271.558594c13.519531 0 24.515625 10.996094 24.515625 24.511719 0 13.519531-10.996094 24.515625-24.515625 24.515625-13.515625 0-24.511719-10.996094-24.511719-24.515625 0-13.515625 10.996094-24.511719 24.511719-24.511719zm56.101562-111.265625c-13.515625 0-24.511719-11-24.511719-24.515625s10.996094-24.511719 24.511719-24.511719c13.519531 0 24.515625 10.996094 24.515625 24.511719s-10.996094 24.515625-24.515625 24.515625zm0 0" data-original="#000000" class="active-path" data-old_color="#000000" fill="#3C5AFD"/><path d="m31.589844 248.457031h16.03125v15.089844h-16.03125zm0 0" data-original="#000000" class="active-path" data-old_color="#000000" fill="#3C5AFD"/><path d="m247.984375 32.058594h16.03125v15.089844h-16.03125zm0 0" data-original="#000000" class="active-path" data-old_color="#000000" fill="#3C5AFD"/><path d="m247.984375 464.851562h16.03125v15.089844h-16.03125zm0 0" data-original="#000000" class="active-path" data-old_color="#000000" fill="#3C5AFD"/><path d="m464.382812 248.457031h16.027344v15.089844h-16.027344zm0 0" data-original="#000000" class="active-path" data-old_color="#000000" fill="#3C5AFD"/></g> </svg>
